<svg width="220" height="56" viewBox="0 0 220 56" fill="none" xmlns="http://www.w3.org/2000/svg" role="img" aria-labelledby="title desc">
  <title id="title">DataLeap logo</title>
  <desc id="desc">DataLeap wordmark with abstract upward mark.</desc>
  <rect width="220" height="56" rx="10" fill="transparent"/>
  <g transform="translate(4 6)">
    <rect x="0" y="0" width="44" height="44" rx="10" fill="#0B1F3A"/>
    <path d="M12 28L19 20L24 25L33 15" stroke="#1BA5E8" stroke-width="3.5" stroke-linecap="round" stroke-linejoin="round"/>
    <circle cx="33" cy="15" r="3" fill="#17D7A0"/>
  </g>
  <g fill="#0B1F3A">
    <path d="M61 17.5H73.7C80.3 17.5 84.6 21.4 84.6 28C84.6 34.6 80.3 38.5 73.7 38.5H61V17.5ZM73.2 34.5C77.4 34.5 80 32.1 80 28C80 23.9 77.4 21.5 73.2 21.5H65.7V34.5H73.2Z"/>
    <path d="M93.8 38.8C89.8 38.8 87.1 36.5 87.1 33C87.1 29.9 89.3 27.6 94.4 27.6H100V27.3C100 24.8 98.6 23.3 95.8 23.3C93.8 23.3 91.7 24 90.3 25.1L88.4 21.7C90.4 20.1 93.3 19.2 96.4 19.2C102 19.2 104.8 21.9 104.8 27V38.5H100.3V36.1C99.2 37.8 97.1 38.8 93.8 38.8ZM95 35.4C97.3 35.4 99.2 34.3 100 32.5V30.2H94.8C91.4 30.2 90.5 31.5 90.5 33C90.5 34.7 91.9 35.4 95 35.4Z"/>
    <path d="M112.7 38.8C109.2 38.8 107.2 36.9 107.2 33.3V23.6H103.9V19.8H107.2V15.3H111.9V19.8H117.2V23.6H111.9V33.2C111.9 35.2 112.9 36.3 114.7 36.3C115.7 36.3 116.7 36 117.4 35.4L118.7 38.8C117.6 39.7 116 40.2 114.3 40.2L112.7 38.8Z"/>
    <path d="M126.5 38.8C122.5 38.8 119.8 36.5 119.8 33C119.8 29.9 122 27.6 127.1 27.6H132.7V27.3C132.7 24.8 131.3 23.3 128.5 23.3C126.5 23.3 124.4 24 123 25.1L121.1 21.7C123.1 20.1 126 19.2 129.1 19.2C134.7 19.2 137.5 21.9 137.5 27V38.5H133V36.1C131.9 37.8 129.8 38.8 126.5 38.8ZM127.7 35.4C130 35.4 131.9 34.3 132.7 32.5V30.2H127.5C124.1 30.2 123.2 31.5 123.2 33C123.2 34.7 124.6 35.4 127.7 35.4Z"/>
    <path d="M150.4 19.2C155.9 19.2 159.9 23.2 159.9 29C159.9 34.8 155.9 38.8 150.4 38.8C148 38.8 145.9 38 144.5 36.4V45H139.8V19.5H144.3V22C145.7 20.1 147.9 19.2 150.4 19.2ZM149.8 34.8C152.7 34.8 155.1 32.6 155.1 29C155.1 25.4 152.7 23.2 149.8 23.2C146.8 23.2 144.5 25.4 144.5 29C144.5 32.6 146.8 34.8 149.8 34.8Z"/>
    <path d="M162.5 17.5H167.2V38.5H162.5V17.5Z"/>
    <path d="M177.2 38.8C173.2 38.8 170.5 36.5 170.5 33C170.5 29.9 172.7 27.6 177.8 27.6H183.4V27.3C183.4 24.8 182 23.3 179.2 23.3C177.2 23.3 175.1 24 173.7 25.1L171.8 21.7C173.8 20.1 176.7 19.2 179.8 19.2C185.4 19.2 188.2 21.9 188.2 27V38.5H183.7V36.1C182.6 37.8 180.5 38.8 177.2 38.8ZM178.4 35.4C180.7 35.4 182.6 34.3 183.4 32.5V30.2H178.2C174.8 30.2 173.9 31.5 173.9 33C173.9 34.7 175.3 35.4 178.4 35.4Z"/>
  </g>
</svg>
